<svg width="17" height="6" viewBox="0 0 17 6" fill="none" xmlns="http://www.w3.org/2000/svg">
<path d="M0.0703125 5.17969V4.58203H0.667969V5.17969H0.0703125ZM0.820312 5.17969V4.58203H1.41797V5.17969H0.820312ZM1.57031 5.17969V4.58203H2.16797V5.17969H1.57031ZM2.32031 5.17969V4.58203H2.91797V5.17969H2.32031ZM3.07031 4.42969V3.83203H3.66797V4.42969H3.07031ZM0.820312 3.67969V3.08203H1.41797V3.67969H0.820312ZM1.57031 3.67969V3.08203H2.16797V3.67969H1.57031ZM2.32031 3.67969V3.08203H2.91797V3.67969H2.32031ZM0.0703125 2.92969V2.33203H0.667969V2.92969H0.0703125ZM0.820312 2.17969V1.58203H1.41797V2.17969H0.820312ZM1.57031 2.17969V1.58203H2.16797V2.17969H1.57031ZM2.32031 2.17969V1.58203H2.91797V2.17969H2.32031ZM3.07031 2.17969V1.58203H3.66797V2.17969H3.07031ZM5.30859 5.17969V4.58203H5.90625V5.17969H5.30859ZM6.05859 5.17969V4.58203H6.65625V5.17969H6.05859ZM6.80859 5.17969V4.58203H7.40625V5.17969H6.80859ZM7.55859 5.17969V4.58203H8.15625V5.17969H7.55859ZM4.55859 4.42969V3.83203H5.15625V4.42969H4.55859ZM7.55859 4.42969V3.83203H8.15625V4.42969H7.55859ZM5.30859 3.67969V3.08203H5.90625V3.67969H5.30859ZM6.05859 3.67969V3.08203H6.65625V3.67969H6.05859ZM6.80859 3.67969V3.08203H7.40625V3.67969H6.80859ZM7.55859 3.67969V3.08203H8.15625V3.67969H7.55859ZM7.55859 2.92969V2.33203H8.15625V2.92969H7.55859ZM5.30859 2.17969V1.58203H5.90625V2.17969H5.30859ZM6.05859 2.17969V1.58203H6.65625V2.17969H6.05859ZM6.80859 2.17969V1.58203H7.40625V2.17969H6.80859ZM10.5469 5.17969V4.58203H11.1445V5.17969H10.5469ZM11.2969 5.17969V4.58203H11.8945V5.17969H11.2969ZM9.79688 4.42969V3.83203H10.3945V4.42969H9.79688ZM9.79688 3.67969V3.08203H10.3945V3.67969H9.79688ZM9.79688 2.92969V2.33203H10.3945V2.92969H9.79688ZM9.04688 2.17969V1.58203H9.64453V2.17969H9.04688ZM9.79688 2.17969V1.58203H10.3945V2.17969H9.79688ZM10.5469 2.17969V1.58203H11.1445V2.17969H10.5469ZM11.2969 2.17969V1.58203H11.8945V2.17969H11.2969ZM9.79688 1.42969V0.832031H10.3945V1.42969H9.79688ZM13.5352 5.17969V4.58203H14.1328V5.17969H13.5352ZM14.2852 5.17969V4.58203H14.8828V5.17969H14.2852ZM15.0352 5.17969V4.58203H15.6328V5.17969H15.0352ZM12.7852 4.42969V3.83203H13.3828V4.42969H12.7852ZM15.7852 4.42969V3.83203H16.3828V4.42969H15.7852ZM12.7852 3.67969V3.08203H13.3828V3.67969H12.7852ZM15.7852 3.67969V3.08203H16.3828V3.67969H15.7852ZM12.7852 2.92969V2.33203H13.3828V2.92969H12.7852ZM15.7852 2.92969V2.33203H16.3828V2.92969H15.7852ZM13.5352 2.17969V1.58203H14.1328V2.17969H13.5352ZM14.2852 2.17969V1.58203H14.8828V2.17969H14.2852ZM15.0352 2.17969V1.58203H15.6328V2.17969H15.0352Z" fill="white"/>
</svg>
