<svg width="32" height="32" viewBox="0 0 32 32" fill="none" xmlns="http://www.w3.org/2000/svg">
  <g transform="scale(8)">
    <path d="M0.0703125 4.17969V3.58203H0.667969V4.17969H0.0703125ZM0.820312 4.17969V3.58203H1.41797V4.17969H0.820312ZM1.57031 4.17969V3.58203H2.16797V4.17969H1.57031ZM2.32031 4.17969V3.58203H2.91797V4.17969H2.32031ZM3.07031 3.42969V2.83203H3.66797V3.42969H3.07031ZM0.820312 2.67969V2.08203H1.41797V2.67969H0.820312ZM1.57031 2.67969V2.08203H2.16797V2.67969H1.57031ZM2.32031 2.67969V2.08203H2.91797V2.67969H2.32031ZM0.0703125 1.92969V1.33203H0.667969V1.92969H0.0703125ZM0.820312 1.17969V0.582031H1.41797V1.17969H0.820312ZM1.57031 1.17969V0.582031H2.16797V1.17969H1.57031ZM2.32031 1.17969V0.582031H2.91797V1.17969H2.32031ZM3.07031 1.17969V0.582031H3.66797V1.17969H3.07031Z" fill="black"/>
  </g>
</svg>
