<svg width="32" height="32" viewBox="0 0 32 32" fill="none" xmlns="http://www.w3.org/2000/svg">
<rect width="32" height="32" rx="5" fill="#212121"/>
<path d="M6.375 25.625V22.4375H9.5625V25.625H6.375ZM10.375 25.625V22.4375H13.5625V25.625H10.375ZM14.375 25.625V22.4375H17.5625V25.625H14.375ZM18.375 25.625V22.4375H21.5625V25.625H18.375ZM22.375 21.625V18.4375H25.5625V21.625H22.375ZM10.375 17.625V14.4375H13.5625V17.625H10.375ZM14.375 17.625V14.4375H17.5625V17.625H14.375ZM18.375 17.625V14.4375H21.5625V17.625H18.375ZM6.375 13.625V10.4375H9.5625V13.625H6.375ZM10.375 9.625V6.4375H13.5625V9.625H10.375ZM14.375 9.625V6.4375H17.5625V9.625H14.375ZM18.375 9.625V6.4375H21.5625V9.625H18.375ZM22.375 9.625V6.4375H25.5625V9.625H22.375Z" fill="white"/>
</svg>
